<?xml version="1.0" encoding="UTF-8"?>
<!-- Generator: visioncortex VTracer 0.6.12 -->
<svg version="1.1" xmlns="http://www.w3.org/2000/svg" width="320" height="60" viewBox="395 2681 5548 1035">

<path d="M0 0 C2.019 0.207 4.039 0.414 6.059 0.621 C29.221 3.162 52.853 7.951 74.958 15.322 C76.921 15.974 78.891 16.593 80.867 17.203 C91.192 20.477 101.105 24.613 111 29 C111.816 29.361 112.632 29.723 113.473 30.095 C128.307 36.73 141.606 44.388 154 55 C154.831 55.709 155.663 56.418 156.52 57.148 C175.235 73.535 188.154 94.073 195 118 C195.263 118.868 195.526 119.735 195.797 120.629 C200.718 138.281 201.442 156.542 201.369 174.746 C201.371 176.924 201.375 179.101 201.38 181.279 C201.389 185.918 201.388 190.557 201.38 195.197 C201.368 202.545 201.381 209.893 201.397 217.242 C201.433 235.477 201.439 253.712 201.437 271.947 C201.435 286.159 201.442 300.371 201.477 314.583 C201.493 321.877 201.492 329.17 201.476 336.464 C201.47 341.006 201.481 345.549 201.496 350.091 C201.5 352.185 201.497 354.279 201.486 356.372 C201.353 384.813 201.353 384.813 210.289 395.383 C225.519 409.778 246.609 403.526 267 404 C267 441.29 267 478.58 267 517 C243.799 526.28 243.799 526.28 232.062 528.812 C230.788 529.098 229.513 529.384 228.199 529.678 C207.397 534.227 186.722 536.233 165.438 536.25 C164.683 536.251 163.928 536.251 163.151 536.252 C118.958 536.19 71.739 528.542 38.723 496.754 C31.639 489.589 26.513 481.991 22 473 C18.138 475.229 14.587 477.729 11 480.375 C-12.315 497.231 -37.214 509.689 -64 520 C-64.94 520.364 -65.88 520.728 -66.849 521.103 C-73.344 523.547 -79.874 525.406 -86.625 527 C-87.702 527.255 -88.779 527.51 -89.888 527.772 C-101.507 530.449 -113.184 532.429 -125 534 C-125.855 534.119 -126.71 534.237 -127.59 534.359 C-176.166 540.797 -234.551 538.194 -279 516 C-279.572 515.718 -280.144 515.436 -280.734 515.145 C-312.287 499.464 -332.9 474.073 -344.188 441 C-344.836 438.679 -345.434 436.343 -346 434 C-346.182 433.255 -346.364 432.511 -346.551 431.744 C-349.816 417.716 -350.377 403.834 -350.375 389.5 C-350.377 388.653 -350.379 387.806 -350.38 386.933 C-350.377 372.331 -349.338 358.053 -345.875 343.812 C-345.769 343.377 -345.769 343.377 -345.233 341.171 C-340.1 321.019 -331.852 301.7 -318 286 C-317.651 285.591 -317.651 285.591 -315.887 283.523 C-289.271 252.984 -251.033 236.459 -212.518 226.644 C-210.325 226.083 -208.139 225.502 -205.953 224.914 C-185.928 219.806 -165.103 217.44 -144.625 214.812 C-144.033 214.735 -144.033 214.735 -141.039 214.344 C-117.478 211.424 -93.745 210.439 -70.04 209.471 C-67.66 209.374 -65.279 209.275 -62.899 209.175 C-39.929 208.219 -16.994 207.514 6 208 C5.905 203.377 5.799 198.755 5.683 194.133 C5.645 192.566 5.61 190.999 5.578 189.432 C5.217 171.765 3.832 155.179 -9.066 141.734 C-27.635 125.078 -51.896 120.847 -76 122 C-95.823 123.112 -119.311 126.038 -134 141 C-140.997 150.196 -142.091 158.183 -143 170 C-206.36 170 -269.72 170 -335 170 C-335 132.182 -335 132.182 -332 122 C-331.807 121.336 -331.613 120.672 -331.414 119.988 C-325.138 99.031 -313.953 81.846 -299 66 C-298.339 65.274 -297.677 64.549 -296.996 63.801 C-286.759 52.981 -273.927 44.278 -261 37 C-260.278 36.589 -259.556 36.179 -258.812 35.755 C-232.16 20.747 -203.82 11.998 -174 6 C-173.086 5.816 -172.171 5.631 -171.229 5.441 C-115.686 -5.6 -56.178 -6.358 0 0 Z " fill="#FEFEFE" transform="translate(5381,2962)"/>
<path d="M0 0 C0.711 -0.001 1.422 -0.001 2.155 -0.002 C24.649 -0.015 46.903 0.501 69.25 3.25 C70.451 3.389 71.652 3.528 72.89 3.672 C130.409 10.46 200.969 27.353 239.547 74.141 C253.427 91.736 262.399 111.028 266.783 132.983 C267.081 134.429 267.404 135.87 267.761 137.303 C270.018 147.411 269.543 157.759 269.537 168.054 C269.543 170.263 269.55 172.472 269.558 174.681 C269.573 179.421 269.581 184.161 269.586 188.901 C269.592 196.403 269.614 203.905 269.638 211.407 C269.67 221.931 269.697 232.455 269.718 242.978 C269.72 243.645 269.721 244.311 269.722 244.998 C269.732 249.728 269.741 254.458 269.75 259.188 C269.76 264.589 269.771 269.99 269.782 275.391 C269.782 275.724 269.782 275.724 269.786 277.408 C269.808 288.527 269.839 299.647 269.874 310.767 C269.897 318.217 269.911 325.668 269.918 333.118 C269.924 337.761 269.938 342.404 269.954 347.047 C269.96 349.192 269.962 351.336 269.961 353.481 C269.947 388.365 269.947 388.365 280.609 399.781 C294.895 412.57 320.953 406.886 336.25 407.25 C336.25 444.54 336.25 481.83 336.25 520.25 C316.39 528.428 316.39 528.428 308.5 530.375 C308.03 530.494 308.03 530.494 305.65 531.096 C297.596 533.062 289.474 534.618 281.312 536.062 C280.153 536.27 278.994 536.477 277.8 536.69 C263.474 539.095 249.057 539.488 234.562 539.5 C233.813 539.501 233.063 539.501 232.291 539.502 C187.206 539.438 140.917 531.288 107 499.5 C102.237 494.605 98.687 489.161 95.16 483.352 C93.627 480.863 92.053 478.545 90.25 476.25 C89.799 476.586 89.348 476.922 88.883 477.269 C60.386 498.417 29.698 514.484 -3.75 526.25 C-4.799 526.63 -5.849 527.011 -6.93 527.402 C-65.035 547.007 -141.391 545.651 -198.75 524.25 C-199.834 523.85 -200.918 523.451 -202.035 523.039 C-230.923 511.697 -255.335 489.743 -268.562 461.625 C-269.315 459.843 -270.043 458.051 -270.75 456.25 C-271.179 455.175 -271.609 454.1 -272.051 452.992 C-274.991 445.239 -277.024 437.52 -278.386 429.34 C-278.648 427.836 -278.944 426.338 -279.263 424.845 C-281.246 414.807 -281.146 404.753 -281.125 394.562 C-281.125 393.609 -281.125 392.655 -281.124 391.672 C-281.091 376.516 -280.223 362.06 -276.75 347.25 C-276.568 346.434 -276.386 345.619 -276.199 344.778 C-267.949 308.611 -245.545 279.048 -214.523 259.125 C-186.258 241.544 -155.258 231.545 -122.75 225.25 C-121.513 225.006 -120.275 224.762 -119.001 224.511 C-109.312 222.626 -99.598 221.105 -89.812 219.812 C-89.025 219.708 -88.238 219.603 -87.426 219.495 C-72.696 217.558 -57.932 216.196 -43.125 215 C-42.615 214.959 -42.615 214.959 -40.032 214.749 C-20.643 213.193 -1.256 212.192 18.188 211.688 C18.978 211.666 19.768 211.645 20.582 211.623 C38.804 211.144 57.023 211.146 75.25 211.25 C75.205 206.236 75.135 201.224 75.042 196.211 C75.015 194.512 74.993 192.813 74.979 191.114 C74.821 173.272 71.983 157.742 59.25 144.25 C51.581 137.981 43.575 133.582 34.25 130.25 C33.482 129.955 32.713 129.66 31.922 129.355 C5.952 119.874 -27.818 124.478 -52.484 135.566 C-62.075 140.511 -67.633 146.265 -71.75 156.25 C-72.41 161.86 -73.07 167.47 -73.75 173.25 C-137.11 173.25 -200.47 173.25 -265.75 173.25 C-272.226 147.345 -262.68 115.906 -249.5 93.5 C-244.975 86.115 -239.635 79.585 -233.75 73.25 C-233.217 72.674 -232.685 72.097 -232.136 71.503 C-223.792 62.574 -214.928 55.008 -204.75 48.25 C-204.075 47.801 -203.4 47.351 -202.705 46.888 C-166.175 22.895 -123.787 10.65 -80.75 5.25 C-79.36 5.073 -77.97 4.896 -76.58 4.719 C-72.097 4.152 -67.612 3.603 -63.125 3.062 C-62.774 3.02 -62.774 3.02 -60.999 2.805 C-40.655 0.364 -20.47 0.008 0 0 Z " fill="#FEFEFE" transform="translate(3032.75,2958.75)"/>
<path d="M0 0 C2.553 2.246 5.033 4.554 7.504 6.891 C8.378 7.689 9.252 8.486 10.152 9.309 C42.792 40.218 55.903 88.281 58.504 131.891 C58.635 136.915 58.635 141.937 58.624 146.963 C58.625 148.454 58.625 149.945 58.627 151.436 C58.629 155.502 58.625 159.568 58.62 163.634 C58.616 168.031 58.617 172.427 58.618 176.824 C58.618 184.431 58.615 192.038 58.61 199.645 C58.601 210.643 58.599 221.641 58.598 232.639 C58.595 250.485 58.589 268.331 58.579 286.177 C58.57 303.508 58.563 320.838 58.559 338.168 C58.559 339.249 58.558 340.329 58.558 341.441 C58.556 349.889 58.554 358.336 58.552 366.784 C58.543 408.153 58.523 449.522 58.504 490.891 C-5.516 490.891 -69.536 490.891 -135.496 490.891 C-135.533 467.748 -135.571 444.606 -135.609 420.762 C-135.64 406.11 -135.671 391.458 -135.705 376.807 C-135.723 369.109 -135.741 361.412 -135.759 353.714 C-135.76 353.232 -135.76 353.232 -135.765 350.791 C-135.801 335.235 -135.825 319.68 -135.846 304.125 C-135.868 288.15 -135.901 272.175 -135.945 256.2 C-135.971 246.35 -135.989 236.5 -135.995 226.65 C-136.001 219.886 -136.017 213.123 -136.042 206.36 C-136.056 202.464 -136.065 198.567 -136.061 194.671 C-136.058 191.093 -136.068 187.516 -136.089 183.938 C-136.097 182.052 -136.09 180.166 -136.083 178.281 C-136.252 157.623 -142.72 138.426 -157.023 123.215 C-172.745 108.437 -192.847 108.171 -213.18 108.716 C-229.071 109.553 -243.854 117.355 -255.496 127.891 C-256.266 128.567 -257.035 129.244 -257.828 129.941 C-270.991 142.207 -279.121 160.038 -280.496 177.891 C-280.642 182.212 -280.651 186.532 -280.654 190.856 C-280.659 192.141 -280.664 193.427 -280.669 194.752 C-280.683 198.3 -280.69 201.849 -280.697 205.397 C-280.705 209.231 -280.718 213.066 -280.731 216.9 C-280.753 223.536 -280.771 230.172 -280.787 236.809 C-280.81 246.403 -280.838 255.998 -280.867 265.593 C-280.915 281.161 -280.958 296.729 -280.999 312.298 C-281.038 327.417 -281.08 342.537 -281.124 357.657 C-281.127 358.599 -281.129 359.541 -281.132 360.512 C-281.154 367.88 -281.175 375.248 -281.197 382.616 C-281.303 418.707 -281.399 454.799 -281.496 490.891 C-345.846 490.891 -410.196 490.891 -476.496 490.891 C-476.496 320.941 -476.496 150.991 -476.496 -24.109 C-423.696 -24.109 -370.896 -24.109 -316.496 -24.109 C-308.496 22.891 -308.496 22.891 -306.496 36.891 C-305.984 39.688 -305.449 42.481 -304.871 45.266 C-304.611 46.531 -304.35 47.797 -304.082 49.102 C-303.889 50.022 -303.695 50.942 -303.496 51.891 C-302.806 51.068 -302.117 50.246 -301.406 49.398 C-285.021 29.907 -285.021 29.907 -277.492 23.582 C-276.164 22.456 -274.863 21.297 -273.594 20.105 C-207.808 -41.387 -93.595 -56.06 0 0 Z " fill="#FEFEFE" transform="translate(3908.49609375,2995.109375)"/>
<path d="M0 0 C0.39 0.141 0.39 0.141 2.365 0.855 C19.57 7.139 34.987 15.147 49 27 C49.515 27.436 50.031 27.871 50.562 28.32 C76.488 50.536 92.067 81.455 99.625 114.375 C99.774 115.015 99.922 115.654 100.076 116.313 C102.747 127.867 104.555 139.449 105.722 151.251 C105.942 153.427 106.216 155.597 106.51 157.764 C107.236 164.337 107.135 170.918 107.12 177.521 C107.121 178.989 107.122 180.457 107.123 181.925 C107.125 185.941 107.121 189.957 107.116 193.973 C107.112 198.31 107.113 202.647 107.114 206.985 C107.114 214.493 107.111 222.002 107.106 229.511 C107.098 240.367 107.095 251.224 107.094 262.08 C107.092 279.695 107.085 297.309 107.075 314.924 C107.066 332.032 107.059 349.141 107.055 366.249 C107.055 367.315 107.054 368.381 107.054 369.479 C107.052 377.814 107.05 386.15 107.048 394.485 C107.039 435.324 107.019 476.162 107 517 C42.65 517 -21.7 517 -88 517 C-88.049 493.834 -88.098 470.669 -88.148 446.801 C-88.184 432.14 -88.22 417.479 -88.258 402.818 C-88.278 395.117 -88.298 387.415 -88.317 379.714 C-88.32 378.748 -88.322 377.783 -88.325 376.789 C-88.365 361.219 -88.397 345.649 -88.427 330.08 C-88.459 314.093 -88.497 298.107 -88.543 282.121 C-88.571 272.262 -88.593 262.402 -88.607 252.543 C-88.618 245.776 -88.636 239.009 -88.659 232.243 C-88.672 228.342 -88.683 224.442 -88.684 220.542 C-88.686 216.963 -88.696 213.384 -88.714 209.806 C-88.721 207.914 -88.719 206.023 -88.716 204.132 C-88.845 184.263 -93.775 165.345 -107.812 150.625 C-123.326 136.046 -141.705 134.369 -162.038 134.877 C-181.902 135.702 -199.13 145.046 -213 159 C-227.661 175.667 -233.14 194.902 -233.158 216.724 C-233.163 218.009 -233.168 219.293 -233.173 220.616 C-233.187 224.169 -233.194 227.722 -233.201 231.274 C-233.209 235.11 -233.222 238.946 -233.235 242.781 C-233.257 249.423 -233.275 256.065 -233.291 262.706 C-233.314 272.309 -233.342 281.912 -233.371 291.515 C-233.419 307.095 -233.462 322.676 -233.503 338.256 C-233.542 353.39 -233.584 368.523 -233.628 383.656 C-233.63 384.599 -233.633 385.542 -233.636 386.513 C-233.658 393.885 -233.679 401.257 -233.701 408.629 C-233.807 444.752 -233.903 480.876 -234 517 C-298.02 517 -362.04 517 -428 517 C-428 347.05 -428 177.1 -428 2 C-375.53 2 -323.06 2 -269 2 C-256.689 71.247 -256.689 71.247 -257 79 C-256.34 79 -255.68 79 -255 79 C-254.767 78.46 -254.533 77.92 -254.293 77.363 C-245.325 60.971 -227.86 46.854 -213 36 C-211.978 35.245 -210.956 34.489 -209.902 33.711 C-182.016 13.757 -151.37 1.202 -118 -6 C-117.597 -6.088 -117.597 -6.088 -115.555 -6.532 C-79.28 -14.279 -34.991 -13.024 0 0 Z " fill="#FEFEFE" transform="translate(2558,2969)"/>
<path d="M0 0 C1.054 0.189 2.108 0.378 3.193 0.573 C63.56 11.58 131.253 37.73 167.779 90.201 C193.491 128.076 202 168.551 202 214 C139.96 214 77.92 214 14 214 C13.244 210.977 12.803 208.495 12.57 205.438 C10.85 184.36 6.245 163.045 -10 148 C-36.333 127.282 -70.203 124.069 -102.605 127.504 C-123.927 130.375 -143.551 140.832 -156.867 157.848 C-164.903 169.725 -169.995 183.093 -173.188 197 C-173.355 197.724 -173.522 198.447 -173.694 199.193 C-176.449 211.885 -176.178 224.762 -176.203 237.68 C-176.206 238.669 -176.209 239.659 -176.212 240.679 C-176.227 245.923 -176.236 251.166 -176.24 256.41 C-176.246 261.763 -176.27 267.115 -176.298 272.468 C-176.317 276.64 -176.322 280.811 -176.324 284.983 C-176.327 286.953 -176.334 288.923 -176.348 290.893 C-176.541 321.625 -171.552 353.081 -149.766 376.391 C-138.313 387.394 -122.589 395.075 -107 398 C-106.569 398.092 -106.569 398.092 -104.387 398.559 C-86.398 401.807 -66.974 401.006 -49 398 C-47.978 397.879 -46.956 397.758 -45.902 397.633 C-27.525 395.26 -9.476 385.557 3 372 C8.174 365.279 11.755 357.802 15 350 C15.343 349.206 15.686 348.412 16.039 347.594 C20.38 335.877 20.351 323.329 21 311 C80.73 311 140.46 311 202 311 C202 337.788 199.984 363.679 191 389 C190.888 389.326 190.888 389.326 190.321 390.974 C183.017 412.117 172.406 431.792 157.391 448.453 C155.993 450.007 154.619 451.58 153.246 453.156 C147.366 459.83 141.046 465.559 134 471 C133.05 471.777 132.1 472.555 131.121 473.355 C117.652 484.175 102.48 492.799 86.861 500.125 C85.103 500.951 83.358 501.803 81.613 502.656 C48.229 518.228 11.524 525.729 -24.75 530.688 C-25.599 530.807 -26.448 530.926 -27.323 531.05 C-44.969 533.339 -62.865 533.238 -80.625 533.25 C-81.786 533.251 -82.947 533.253 -84.143 533.254 C-103.274 533.249 -122.023 532.406 -141 530 C-141.464 529.947 -141.464 529.947 -143.81 529.676 C-177.11 525.828 -210.986 515.911 -241 501 C-241.724 500.646 -242.448 500.292 -243.194 499.928 C-263.365 489.994 -281.889 476.945 -298.246 461.543 C-300.183 459.755 -302.11 458.064 -304.145 456.398 C-307.889 453.253 -310.859 449.731 -314 446 C-314.764 445.123 -315.529 444.247 -316.316 443.344 C-344.955 409.999 -360.286 367.766 -368 325 C-368.133 324.274 -368.267 323.549 -368.404 322.801 C-369.157 318.551 -369.622 314.296 -370 310 C-370.087 309.09 -370.175 308.18 -370.265 307.243 C-373.084 277.01 -374.016 245.776 -369.406 215.695 C-369.02 213.135 -368.69 210.574 -368.379 208.004 C-361.974 157.407 -341.601 109.795 -306 73 C-305.548 72.528 -305.548 72.528 -303.258 70.137 C-297.194 63.927 -290.866 58.305 -284 53 C-283.475 52.588 -282.95 52.176 -282.41 51.752 C-258.887 33.387 -232.168 20.493 -204 11 C-202.822 10.602 -201.644 10.203 -200.43 9.793 C-197.302 8.789 -194.166 7.876 -191 7 C-190.67 6.907 -190.67 6.907 -189.001 6.436 C-129.399 -10.193 -60.688 -11.253 0 0 Z " fill="#FEFEFE" transform="translate(4432,2965)"/>
<path d="M0 0 C0.907 -0.006 1.813 -0.011 2.747 -0.017 C21.824 -0.102 40.395 1.817 59.188 5 C59.956 5.128 60.724 5.257 61.516 5.389 C77.869 8.139 93.635 12.003 109.375 17.25 C109.375 55.2 109.375 93.15 109.375 132.25 C80.688 132.625 80.688 132.625 71.712 132.728 C69.325 132.763 66.938 132.799 64.551 132.836 C63.343 132.847 62.136 132.859 60.892 132.87 C46.443 133.113 32.877 134.466 21.301 143.949 C7.01 159.391 9.971 185.775 9.375 204.25 C42.375 204.25 75.375 204.25 109.375 204.25 C109.375 247.48 109.375 290.71 109.375 335.25 C76.375 335.25 43.375 335.25 9.375 335.25 C9.375 461.97 9.375 588.69 9.375 719.25 C-54.645 719.25 -118.665 719.25 -184.625 719.25 C-184.625 592.53 -184.625 465.81 -184.625 335.25 C-208.385 335.25 -232.145 335.25 -256.625 335.25 C-256.625 292.02 -256.625 248.79 -256.625 204.25 C-232.865 204.25 -209.105 204.25 -184.625 204.25 C-184.666 197.774 -184.707 191.298 -184.75 184.625 C-184.781 169.748 -184.752 155.006 -182.625 140.25 C-182.523 139.528 -182.421 138.806 -182.316 138.062 C-181.586 133.088 -180.658 128.17 -179.625 123.25 C-179.456 122.432 -179.288 121.614 -179.114 120.771 C-171.277 83.455 -153.891 51.618 -121.625 30.25 C-120.586 29.55 -119.547 28.85 -118.477 28.129 C-83.419 5.479 -40.803 0.163 0 0 Z " fill="#FEFEFE" transform="translate(1630.625,2766.75)"/>
<path d="M0 0 C64.35 0 128.7 0 195 0 C195 233.64 195 467.28 195 708 C130.65 708 66.3 708 0 708 C0 474.36 0 240.72 0 0 Z " fill="#FEFEFE" transform="translate(5718,2778)"/>
<path d="M0 0 C8.765 7.596 21.043 20.686 23.125 32.688 C23.785 32.688 24.445 32.688 25.125 32.688 C25.247 32.406 25.247 32.406 25.867 30.984 C28.44 26.286 32.491 22.582 36.125 18.688 C36.71 18.025 37.295 17.362 37.898 16.68 C59.344 -6.513 93.747 -19.84 124.831 -21.453 C155.905 -22.471 184.095 -17.229 208.125 3.688 C208.727 4.194 209.329 4.701 209.949 5.223 C230.039 23.533 238.678 54.178 240.291 80.391 C240.545 87.13 240.502 93.869 240.466 100.612 C240.465 102.832 240.465 105.052 240.467 107.271 C240.468 113.231 240.45 119.19 240.429 125.149 C240.41 131.402 240.409 137.655 240.405 143.907 C240.397 154.38 240.378 164.854 240.351 175.327 C240.324 186.103 240.303 196.879 240.29 207.656 C240.289 208.329 240.288 209.003 240.287 209.697 C240.28 215.558 240.274 221.419 240.268 227.281 C240.239 252.416 240.18 277.552 240.125 302.688 C200.855 302.688 161.585 302.688 121.125 302.688 C121.099 288.329 121.073 273.97 121.047 259.176 C121.022 250.075 120.996 240.974 120.965 231.873 C120.916 217.43 120.872 202.988 120.854 188.545 C120.841 178.025 120.814 167.506 120.77 156.986 C120.748 151.42 120.732 145.853 120.733 140.286 C120.734 135.039 120.716 129.792 120.684 124.545 C120.675 122.626 120.674 120.708 120.679 118.79 C120.718 103.465 119.364 88.736 108.43 76.844 C100.379 69.479 89.995 67.169 79.348 67.371 C70.461 68.244 62.243 71.321 55.125 76.688 C54.533 77.105 53.942 77.523 53.332 77.953 C43.186 85.748 38.874 97.423 37.125 109.688 C37.026 112.379 36.97 115.045 36.967 117.736 C36.964 118.133 36.964 118.133 36.952 120.14 C36.937 122.788 36.928 125.437 36.92 128.085 C36.91 129.988 36.9 131.89 36.89 133.792 C36.863 138.951 36.842 144.11 36.822 149.268 C36.8 154.661 36.772 160.055 36.746 165.448 C36.696 175.658 36.651 185.868 36.608 196.078 C36.549 209.877 36.483 223.676 36.417 237.475 C36.313 259.213 36.22 280.95 36.125 302.688 C-3.475 302.688 -43.075 302.688 -83.875 302.688 C-83.889 288.196 -83.903 273.704 -83.918 258.773 C-83.938 249.586 -83.959 240.398 -83.986 231.211 C-84.029 216.632 -84.066 202.053 -84.071 187.475 C-84.074 176.856 -84.094 166.237 -84.136 155.618 C-84.157 150 -84.169 144.381 -84.161 138.762 C-84.154 133.465 -84.17 128.168 -84.203 122.871 C-84.211 120.935 -84.211 118.999 -84.202 117.064 C-84.137 102.464 -85.556 88.086 -95.875 76.688 C-104.465 69.188 -114.082 67.06 -125.281 67.34 C-137.481 68.52 -147.8 73.707 -156.18 82.594 C-167.518 96.597 -168.324 111.659 -168.307 128.88 C-168.316 130.784 -168.327 132.687 -168.338 134.59 C-168.366 139.719 -168.375 144.849 -168.381 149.978 C-168.391 155.352 -168.417 160.727 -168.441 166.101 C-168.485 176.262 -168.513 186.422 -168.536 196.583 C-168.569 210.324 -168.624 224.066 -168.678 237.808 C-168.763 259.434 -168.816 281.061 -168.875 302.688 C-208.145 302.688 -247.415 302.688 -287.875 302.688 C-287.875 198.077 -287.875 93.468 -287.875 -14.312 C-255.535 -14.312 -223.195 -14.312 -189.875 -14.312 C-187.565 -0.452 -185.255 13.407 -182.875 27.688 C-182.71 28.347 -182.71 28.347 -181.875 31.688 C-181.209 30.865 -180.542 30.043 -179.855 29.195 C-138.703 -20.936 -54.51 -42.338 0 0 Z " fill="#727272" transform="translate(712.875,3115.3125)"/>
<path d="M0 0 C64.35 0 128.7 0 195 0 C195 169.95 195 339.9 195 515 C130.65 515 66.3 515 0 515 C0 345.05 0 175.1 0 0 Z " fill="#FEFEFE" transform="translate(1811,2971)"/>
<path d="M0 0 C64.02 0 128.04 0 194 0 C194 169.95 194 339.9 194 515 C129.98 515 65.96 515 0 515 C0 345.05 0 175.1 0 0 Z " fill="#FEFEFE" transform="translate(4742,2971)"/>
<path d="M0 0 C42.24 0 84.48 0 128 0 C130.19 6.569 132.302 13.128 134.312 19.75 C134.466 20.257 134.466 20.257 135.245 22.82 C137.379 29.875 139.444 36.947 141.451 44.039 C143.134 49.984 144.845 55.92 146.574 61.852 C155.014 90.83 155.014 90.83 158.688 104.75 C161.121 113.953 163.821 123.042 166.667 132.126 C174.684 157.904 181.778 183.99 189 210 C190.32 210.33 191.64 210.66 193 211 C193.26 209.796 193.521 208.592 193.789 207.352 C195.202 200.997 196.79 194.688 198.375 188.375 C198.69 187.121 199.004 185.867 199.328 184.575 C201.94 174.189 204.624 163.833 207.551 153.531 C211.069 141.123 214.364 128.688 217.445 116.163 C219.369 108.389 221.475 100.694 223.731 93.011 C225.847 85.72 227.687 78.371 229.5 71 C231.726 61.952 234.093 52.978 236.724 44.04 C239.268 35.291 241.422 26.448 243.553 17.59 C243.69 17.025 243.69 17.025 244.387 14.168 C244.626 13.17 244.865 12.173 245.112 11.145 C246.181 7.359 247.618 3.684 249 0 C287.61 0 326.22 0 366 0 C364.09 7.005 362.165 13.666 359.621 20.414 C359.297 21.285 358.974 22.156 358.64 23.054 C357.942 24.931 357.242 26.807 356.539 28.682 C355.408 31.704 354.282 34.729 353.158 37.753 C351.972 40.945 350.785 44.136 349.597 47.326 C345.407 58.581 341.263 69.851 337.125 81.125 C336.373 83.173 335.62 85.222 334.868 87.27 C329.062 103.085 323.283 118.911 317.506 134.737 C309.862 155.675 302.16 176.591 294.449 197.504 C294.015 198.682 293.58 199.86 293.133 201.074 C292.917 201.66 292.917 201.66 291.824 204.625 C287.849 215.407 283.883 226.193 279.922 236.98 C278.82 239.981 277.716 242.981 276.613 245.981 C273.213 255.229 269.822 264.48 266.459 273.741 C237.784 352.702 237.784 352.702 217 381 C216.599 381.553 216.197 382.105 215.784 382.674 C209.731 390.966 203.071 398.567 196 406 C195.397 406.656 194.793 407.312 194.172 407.988 C180.955 421.943 164.094 430.438 146 436 C144.764 436.38 143.528 436.761 142.254 437.152 C138.521 438.217 134.787 439.144 131 440 C130.334 440.151 129.669 440.302 128.983 440.458 C98.067 447.158 52.689 446.345 24 432 C24 408.57 24 385.14 24 361 C50 360.688 50 360.688 58.102 360.612 C91.172 360.18 91.172 360.18 106 351 C106.332 350.797 106.332 350.797 108.012 349.77 C116.263 343.744 122.439 330.9 124 321 C124.332 315.548 123.354 311.407 121.286 306.43 C120.997 305.708 120.708 304.986 120.411 304.241 C119.454 301.856 118.481 299.477 117.508 297.098 C116.823 295.398 116.14 293.698 115.457 291.997 C114.028 288.439 112.593 284.883 111.153 281.329 C109.107 276.274 107.087 271.21 105.077 266.14 C104.758 265.334 104.438 264.528 104.109 263.697 C103.46 262.061 102.811 260.424 102.163 258.787 C100.485 254.556 98.801 250.328 97.118 246.099 C96.421 244.348 95.724 242.597 95.027 240.846 C94.676 239.962 94.324 239.078 93.961 238.167 C92.08 233.44 90.2 228.713 88.319 223.987 C84.748 215.011 81.177 206.035 77.605 197.059 C70.927 180.278 64.251 163.497 57.574 146.716 C56.027 142.829 54.481 138.943 52.935 135.056 C44.616 114.148 36.299 93.239 27.988 72.328 C27.628 71.42 27.267 70.513 26.895 69.577 C23.468 60.955 20.042 52.332 16.616 43.71 C15.387 40.615 14.157 37.52 12.927 34.425 C12.105 32.356 11.284 30.287 10.462 28.218 C10.208 27.578 9.953 26.938 9.691 26.279 C8.956 24.427 8.221 22.575 7.486 20.722 C6.432 18.074 5.365 15.431 4.29 12.791 C4.011 12.101 3.732 11.412 3.444 10.701 C2.907 9.377 2.367 8.054 1.824 6.732 C0 2.224 0 2.224 0 0 Z " fill="#727272" transform="translate(989,3101)"/>
<path d="M0 0 C1.015 -0.005 2.031 -0.01 3.077 -0.015 C4.193 -0.011 5.31 -0.006 6.46 -0.001 C7.652 -0.004 8.844 -0.007 10.072 -0.01 C13.402 -0.016 16.731 -0.013 20.061 -0.007 C23.689 -0.002 27.316 -0.008 30.944 -0.013 C37.334 -0.021 43.724 -0.021 50.114 -0.016 C59.68 -0.009 69.246 -0.013 78.812 -0.02 C95.112 -0.031 111.413 -0.032 127.714 -0.028 C144.241 -0.024 160.768 -0.025 177.295 -0.03 C178.337 -0.031 179.38 -0.031 180.454 -0.031 C184.7 -0.033 188.945 -0.034 193.191 -0.036 C236.333 -0.052 279.475 -0.054 322.617 -0.052 C328.582 -0.051 334.547 -0.051 340.512 -0.051 C341.697 -0.051 342.882 -0.051 344.103 -0.051 C370.335 -0.049 396.567 -0.052 422.799 -0.055 C428.785 -0.056 434.771 -0.057 440.757 -0.058 C443.16 -0.058 445.562 -0.058 447.964 -0.059 C449.155 -0.059 450.346 -0.059 451.573 -0.059 C453.981 -0.059 456.39 -0.06 458.799 -0.06 C527.163 -0.069 595.528 -0.073 663.892 -0.069 C665.159 -0.069 666.425 -0.069 667.73 -0.069 C681.854 -0.068 695.978 -0.067 710.102 -0.066 C711.377 -0.066 712.653 -0.066 713.967 -0.066 C724.564 -0.065 724.564 -0.065 729.438 -0.065 C811.019 -0.059 892.601 -0.067 974.182 -0.085 C994.738 -0.09 1015.295 -0.095 1035.851 -0.099 C1037.117 -0.1 1038.382 -0.1 1039.686 -0.1 C1078.677 -0.108 1117.668 -0.113 1156.659 -0.114 C1157.883 -0.114 1159.107 -0.114 1160.367 -0.114 C1187.226 -0.115 1214.084 -0.114 1240.943 -0.113 C1250.553 -0.113 1260.163 -0.112 1269.772 -0.112 C1272.163 -0.112 1274.554 -0.112 1276.945 -0.112 C1315.083 -0.11 1353.22 -0.117 1391.358 -0.129 C1430.823 -0.14 1470.288 -0.141 1509.753 -0.129 C1513.987 -0.128 1518.22 -0.126 1522.454 -0.125 C1523.493 -0.125 1524.532 -0.125 1525.602 -0.124 C1542.088 -0.12 1558.573 -0.126 1575.058 -0.136 C1591.249 -0.145 1607.439 -0.144 1623.629 -0.131 C1633.134 -0.124 1642.639 -0.126 1652.143 -0.139 C1658.445 -0.147 1664.746 -0.144 1671.048 -0.132 C1674.627 -0.126 1678.206 -0.124 1681.785 -0.136 C1685.624 -0.148 1689.462 -0.137 1693.301 -0.124 C1694.412 -0.131 1695.524 -0.139 1696.67 -0.146 C1702.184 -0.107 1706.289 0.051 1711.006 3.251 C1714.964 7.637 1716.318 10.24 1716.221 16.223 C1715.768 20.489 1713.591 22.724 1710.506 25.501 C1706.962 27.981 1704.351 28.376 1700.136 28.377 C1699.63 28.379 1699.63 28.379 1697.067 28.386 C1696.507 28.385 1696.507 28.385 1693.675 28.38 C1693.08 28.38 1693.08 28.38 1690.068 28.385 C1686.737 28.389 1683.406 28.388 1680.075 28.386 C1676.448 28.384 1672.821 28.389 1669.194 28.392 C1662.803 28.397 1656.413 28.399 1650.022 28.398 C1640.456 28.397 1630.889 28.402 1621.322 28.407 C1605.02 28.417 1588.719 28.422 1572.417 28.424 C1555.888 28.426 1539.359 28.43 1522.83 28.437 C1521.787 28.437 1520.745 28.438 1519.671 28.438 C1515.425 28.44 1511.179 28.442 1506.934 28.444 C1455.428 28.465 1403.922 28.476 1352.417 28.485 C1335.719 28.488 1319.021 28.491 1302.323 28.495 C1301.735 28.495 1301.735 28.495 1298.755 28.496 C1293.992 28.497 1289.228 28.498 1284.465 28.499 C1202.989 28.517 1121.513 28.532 1040.037 28.54 C1033.636 28.54 1027.234 28.541 1020.833 28.542 C1019.563 28.542 1018.293 28.542 1016.985 28.542 C1004.119 28.543 991.253 28.544 978.387 28.546 C975.808 28.546 973.228 28.546 970.648 28.546 C887.771 28.554 804.893 28.576 722.016 28.609 C662.477 28.632 602.937 28.654 543.398 28.661 C542.174 28.661 540.95 28.661 539.69 28.661 C512.829 28.665 485.969 28.667 459.109 28.668 C448.303 28.668 437.496 28.669 426.689 28.669 C426.098 28.669 426.098 28.669 423.105 28.669 C384.965 28.671 346.824 28.686 308.683 28.706 C270.282 28.727 231.88 28.735 193.478 28.725 C188.177 28.724 182.877 28.723 177.576 28.721 C176.537 28.721 175.498 28.721 174.427 28.721 C157.94 28.718 141.453 28.728 124.966 28.744 C108.774 28.759 92.582 28.761 76.39 28.746 C66.885 28.739 57.379 28.742 47.874 28.761 C41.571 28.773 35.269 28.77 28.967 28.755 C25.387 28.748 21.808 28.746 18.228 28.762 C14.389 28.779 10.551 28.766 6.712 28.749 C6.156 28.754 6.156 28.754 3.343 28.779 C-2.762 28.722 -6.363 28.353 -10.994 24.251 C-14.23 20.504 -15.771 17.402 -15.518 12.345 C-14.377 7.783 -11.216 3.598 -7.2 1.162 C-4.636 0.103 -2.771 0 0 0 Z " fill="#7ED857" transform="translate(2858.994312815368,3657.749239664525)"/>
<path d="M0 0 C1.506 -0.011 3.011 -0.032 4.517 -0.062 C29.822 -0.562 54.004 8.095 72.354 25.682 C73.219 26.544 74.084 27.407 74.975 28.295 C75.844 29.158 76.713 30.02 77.608 30.908 C97.25 50.712 106.369 76.125 106.348 103.726 C105.791 132.192 93.131 156.63 73.237 176.466 C51.002 197.804 23.477 203.121 -6.363 202.528 C-33.093 201.756 -55.175 186.929 -73.087 168.108 C-93.437 145.138 -98.517 118.05 -96.905 88.061 C-94.858 62.459 -80.074 38.893 -61.025 22.295 C-42.952 8.024 -23.064 0.121 0 0 Z " fill="#7ED856" transform="translate(1906.024658203125,2711.704833984375)"/>
<path d="M0 0 C1.506 -0.011 3.011 -0.032 4.517 -0.062 C31.014 -0.585 54.933 9.155 74.241 27.342 C93.973 46.323 104.862 69.891 106.229 97.323 C106.643 123.6 99.077 148.86 80.975 168.295 C80.506 168.81 80.038 169.325 79.554 169.856 C63.062 187.849 40.377 201.092 15.545 202.488 C-16.455 203.207 -42.966 197.607 -66.861 174.875 C-72.634 169.18 -77.519 163.048 -82.025 156.295 C-82.253 155.975 -82.253 155.975 -83.411 154.358 C-97.705 133.436 -100.4 104.059 -95.9 79.67 C-91.626 60.586 -82.102 44.607 -69.025 30.295 C-68.357 29.545 -67.689 28.795 -67.001 28.022 C-49.763 9.62 -24.741 0.13 0 0 Z " fill="#7ED856" transform="translate(4827.024658203125,2711.704833984375)"/>
<path d="M0 0 C1.526 0.005 3.052 0.01 4.578 0.014 C8.26 0.025 11.943 0.042 15.625 0.062 C15.676 7.322 15.711 14.581 15.735 21.84 C15.745 24.307 15.759 26.775 15.776 29.242 C15.8 32.797 15.812 36.351 15.82 39.906 C15.831 41.002 15.841 42.099 15.852 43.228 C15.854 60.202 8.895 74.32 -2.562 86.688 C-25.475 108.31 -56.398 115.955 -87.078 115.285 C-103.964 114.69 -121.904 111.214 -134.688 99.375 C-144.826 88.424 -146.933 76.2 -146.684 61.707 C-145.586 48.739 -137.858 38.482 -128.227 30.219 C-100.442 9.209 -65.131 3.935 -31.375 1.062 C-30.274 0.965 -29.172 0.867 -28.038 0.766 C-18.678 0.005 -9.381 -0.055 0 0 Z " fill="#010101" transform="translate(3092.375,3261.9375)"/>
<path d="M0 0 C0.077 7.186 0.129 14.371 0.165 21.558 C0.18 23.998 0.2 26.438 0.226 28.878 C0.263 32.403 0.28 35.928 0.293 39.453 C0.308 40.529 0.324 41.604 0.34 42.712 C0.344 59.491 -5.449 73.376 -17.152 85.25 C-39.32 106.657 -67.781 115.689 -98.119 115.405 C-117.209 114.934 -136.414 111.988 -150.809 98.277 C-159.823 88.409 -162.689 75.485 -162.344 62.383 C-161.043 49.586 -153.497 38.295 -143.852 30.121 C-139.085 26.575 -134.069 23.673 -128.809 20.941 C-127.089 20.046 -125.386 19.12 -123.684 18.191 C-86.579 -0.762 -40.711 -0.494 0 0 Z " fill="#010101" transform="translate(5387,3262)"/>

<path d="M0 0 C0.33 0 0.66 0 1 0 C2.215 5.723 2.184 11.366 2.188 17.188 C2.2 18.185 2.212 19.182 2.225 20.209 C2.227 21.165 2.228 22.121 2.23 23.105 C2.235 23.973 2.239 24.841 2.243 25.735 C2 28 2 28 0 31 C-0.877 24.316 -1.11 17.732 -1.125 11 C-1.13 10.151 -1.134 9.301 -1.139 8.427 C-1.137 7.626 -1.135 6.825 -1.133 6 C-1.132 5.278 -1.131 4.556 -1.129 3.812 C-1 2 -1 2 0 0 Z " fill="#72B854" transform="translate(2010,2796)"/>
<path d="M0 0 C7.864 6.694 11.742 21.034 12.688 31.062 C12.803 32.708 12.911 34.353 13 36 C11.518 33.214 10.484 30.533 9.625 27.5 C7.021 18.627 4.262 10.22 0 2 C0 1.34 0 0.68 0 0 Z " fill="#7CBF60" transform="translate(4918,2761)"/>
<path d="M0 0 C0.66 0 1.32 0 2 0 C2 3.63 2 7.26 2 11 C2.66 11 3.32 11 4 11 C4 13.31 4 15.62 4 18 C4.66 18 5.32 18 6 18 C6 20.31 6 22.62 6 25 C6.66 25 7.32 25 8 25 C8 26.65 8 28.3 8 30 C4.969 26.533 3.649 22.705 2.312 18.375 C2.091 17.667 1.87 16.96 1.642 16.23 C0.024 10.757 -0.618 5.712 0 0 Z " fill="#7FC65F" transform="translate(4731,2825)"/>
<path d="M0 0 C4.097 1.366 6.498 3.175 9.562 6.188 C14.865 11.13 20.629 14.596 27 18 C26.67 18.66 26.34 19.32 26 20 C5.502 7.919 5.502 7.919 0 0 Z " fill="#7DC160" transform="translate(1839,2885)"/>


<path d="M0 0 C0.33 0 0.66 0 1 0 C1 1.98 1 3.96 1 6 C0.34 6 -0.32 6 -1 6 C-0.979 7.134 -0.959 8.269 -0.938 9.438 C-1 13 -1 13 -2 14 C-2.368 16.328 -2.702 18.662 -3 21 C-3.66 20.34 -4.32 19.68 -5 19 C-4.709 13.561 -4.014 4.014 0 0 Z " fill="#78BB5A" transform="translate(4736,2777)"/>
<path d="M0 0 C0.66 0.33 1.32 0.66 2 1 C-0.695 4.694 -3.09 6.711 -7 9 C-8.704 10.628 -10.38 12.288 -12 14 C-12.66 13.67 -13.32 13.34 -14 13 C-12.045 11.018 -10.086 9.039 -8.125 7.062 C-7.569 6.499 -7.014 5.935 -6.441 5.354 C-2.227 1.113 -2.227 1.113 0 0 Z " fill="#79BE5B" transform="translate(4768,2733)"/>
<path d="M0 0 C0.66 0.33 1.32 0.66 2 1 C1.362 1.626 0.724 2.253 0.066 2.898 C-0.76 3.716 -1.586 4.533 -2.438 5.375 C-3.261 6.187 -4.085 6.999 -4.934 7.836 C-7 10 -7 10 -8 12 C-8.99 12.33 -9.98 12.66 -11 13 C-11.33 13.495 -11.33 13.495 -13 16 C-13.66 15.67 -14.32 15.34 -15 15 C-10.722 9.76 -6.161 5.361 -1 1 C-0.67 0.67 -0.34 0.34 0 0 Z " fill="#80D15D" transform="translate(4763,2739)"/>
<path d="M0 0 C1.98 0 3.96 0 6 0 C6 0.66 6 1.32 6 2 C7.667 2.333 9.333 2.667 11 3 C12.667 3.333 14.333 3.667 16 4 C16 4.99 16 5.98 16 7 C10.533 5.252 5.242 3.342 0 1 C0 0.67 0 0.34 0 0 Z " fill="#7BC35C" transform="translate(4784,2903)"/>
<path d="M0 0 C5.382 3.588 8.49 8.7 12 14 C11.01 14 10.02 14 9 14 C7.5 12.391 7.5 12.391 6 10.25 C5.505 9.554 5.01 8.858 4.5 8.141 C4.005 7.434 3.51 6.728 3 6 C2.443 5.294 1.886 4.587 1.312 3.859 C0 2 0 2 0 0 Z " fill="#7BBD5E" transform="translate(4906,2745)"/>
<path d="M0 0 C-1.451 3.825 -3.382 5.191 -7 7 C-7.66 7 -8.32 7 -9 7 C-9 5.68 -9 4.36 -9 3 C-3.375 0 -3.375 0 0 0 Z " fill="#7CCB5A" transform="translate(4793,2719)"/>
<path d="M0 0 C1.32 0.33 2.64 0.66 4 1 C2.379 2.172 0.753 3.338 -0.875 4.5 C-1.78 5.15 -2.685 5.799 -3.617 6.469 C-6 8 -6 8 -8 8 C-8.33 7.01 -8.66 6.02 -9 5 C-7.886 4.732 -6.773 4.464 -5.625 4.188 C-2 3 -2 3 0 0 Z " fill="#7EC75E" transform="translate(4886,2895)"/>
<path d="M0 0 C1.866 2.799 2.688 4.819 3.625 8 C3.755 8.433 3.755 8.433 4.414 10.625 C5 13 5 13 5 16 C4.01 16 3.02 16 2 16 C1.333 10.667 0.667 5.333 0 0 Z " fill="#7DC15F" transform="translate(2005,2777)"/>
<path d="M0 0 C4.724 1.624 8.942 4.11 13 7 C13 7.33 13 7.66 13 8 C10.625 8.188 10.625 8.188 8 8 C7.34 7.01 6.68 6.02 6 5 C5.01 4.67 4.02 4.34 3 4 C3 3.34 3 2.68 3 2 C2.01 2 1.02 2 0 2 C0 1.34 0 0.68 0 0 Z " fill="#7DC35E" transform="translate(1957,2723)"/>
<path d="M0 0 C-5.277 3.518 -10.864 3.106 -17 3 C-17 2.67 -17 2.34 -17 2 C-16.397 1.867 -15.793 1.734 -15.172 1.598 C-14.373 1.421 -13.573 1.244 -12.75 1.062 C-11.961 0.888 -11.172 0.714 -10.359 0.535 C-8.846 0.192 -7.34 -0.182 -5.844 -0.594 C-3.609 -1.086 -2.155 -0.693 0 0 Z " fill="#11280A" transform="translate(1942,2911)"/>
<path d="M0 0 C0.33 0.66 0.66 1.32 1 2 C-5.143 7.571 -5.143 7.571 -10 8 C-6.89 4.712 -3.984 2.163 0 0 Z " fill="#7FC85F" transform="translate(4781,2724)"/>
<path d="M0 0 C0.99 0.33 1.98 0.66 3 1 C2.216 1.412 1.432 1.825 0.625 2.25 C-2.059 4.039 -2.881 5.05 -4 8 C-4.66 8 -5.32 8 -6 8 C-6.33 9.32 -6.66 10.64 -7 12 C-7.384 9.388 -7.402 7.629 -5.957 5.367 C-4.146 3.168 -2.573 1.287 0 0 Z " fill="#81C763" transform="translate(2852,3659)"/>
<path d="M0 0 C3.96 0 7.92 0 12 0 C9.602 2.398 8.667 2.343 5.375 2.625 C4.558 2.7 3.74 2.775 2.898 2.852 C2.272 2.901 1.645 2.95 1 3 C0.67 2.01 0.34 1.02 0 0 Z " fill="#7CC45D" transform="translate(4843,2911)"/>
<path d="M0 0 C0.33 0 0.66 0 1 0 C1 3.96 1 7.92 1 12 C0.01 12 -0.98 12 -2 12 C-1 3.429 -1 3.429 0 0 Z " fill="#73B755" transform="translate(1812,2784)"/>
<path d="M0 0 C0.33 0 0.66 0 1 0 C1.081 1.791 1.139 3.583 1.188 5.375 C1.222 6.373 1.257 7.37 1.293 8.398 C1.196 9.257 1.1 10.115 1 11 C0.01 11.66 -0.98 12.32 -2 13 C-1.48 8.621 -0.943 4.312 0 0 Z " fill="#0F2509" transform="translate(2010,2830)"/>
<path d="M0 0 C0.66 0 1.32 0 2 0 C2 0.66 2 1.32 2 2 C2.619 2.227 3.237 2.454 3.875 2.688 C6.614 4.379 7.05 5.992 8 9 C6.848 8.07 5.703 7.131 4.562 6.188 C4.243 5.926 4.243 5.926 2.629 4.605 C1 3 1 3 0 0 Z " fill="#82CA63" transform="translate(1831,2876)"/>
<path d="M0 0 C0.33 0.66 0.66 1.32 1 2 C-0.312 3.5 -0.312 3.5 -2 5 C-2.99 5 -3.98 5 -5 5 C-5 5.66 -5 6.32 -5 7 C-5.99 6.67 -6.98 6.34 -8 6 C-5.51 3.333 -3.366 1.443 0 0 Z " fill="#7DC55E" transform="translate(1860,2724)"/>
<path d="M0 0 C0 0.66 0 1.32 0 2 C0.99 2 1.98 2 3 2 C3 2.66 3 3.32 3 4 C-0.3 3.34 -3.6 2.68 -7 2 C-4 0 -4 0 0 0 Z " fill="#72B455" transform="translate(4808,2909)"/>
<path d="M0 0 C0.33 0 0.66 0 1 0 C1.286 7.429 1.286 7.429 -1 11 C-1.66 11 -2.32 11 -3 11 C-2.01 7.37 -1.02 3.74 0 0 Z " fill="#091A05" transform="translate(4928,2843)"/>
<path d="M0 0 C0 3.258 -0.552 5.104 -2 8 C-2.99 8.33 -3.98 8.66 -5 9 C-3.751 5.541 -2.325 2.853 0 0 Z " fill="#7EC55F" transform="translate(1828,2753)"/>
<path d="M0 0 C0 0.99 0 1.98 0 3 C-1.812 4.75 -1.812 4.75 -4 6 C-4.99 5.67 -5.98 5.34 -7 5 C-6.01 4.67 -5.02 4.34 -4 4 C-4 3.34 -4 2.68 -4 2 C-2.68 1.34 -1.36 0.68 0 0 Z " fill="#84CC64" transform="translate(4571,3679)"/>
<path d="M0 0 C1.98 0 3.96 0 6 0 C5.67 0.66 5.34 1.32 5 2 C2.686 2.731 0.352 3.401 -2 4 C-2 3.34 -2 2.68 -2 2 C-1.34 2 -0.68 2 0 2 C0 1.34 0 0.68 0 0 Z " fill="#81CA61" transform="translate(4871,2903)"/>
<path d="M0 0 C4.419 1.35 6.343 3.261 9 7 C5.183 5.445 2.808 2.964 0 0 Z " fill="#7CC05F" transform="translate(4763,2888)"/>
<path d="M0 0 C1.65 0.33 1.65 0.33 10 2 C10 2.33 10 2.66 10 3 C8.721 3.062 7.443 3.124 6.125 3.188 C5.406 3.222 4.686 3.257 3.945 3.293 C3.303 3.196 2.661 3.1 2 3 C1.34 2.01 0.68 1.02 0 0 Z " fill="#84D063" transform="translate(4853,2714)"/>
<path d="M0 0 C4 0 4 0 6.25 2 C6.828 2.66 7.405 3.32 8 4 C7.67 4.66 7.34 5.32 7 6 C5.831 5.192 4.664 4.378 3.5 3.562 C2.85 3.11 2.201 2.658 1.531 2.191 C1.026 1.798 0.521 1.405 0 1 C0 0.67 0 0.34 0 0 Z " fill="#7DC35F" transform="translate(4772,2895)"/>
<path d="M0 0 C2.64 0 5.28 0 8 0 C8.33 0.99 8.66 1.98 9 3 C7.515 2.67 7.515 2.67 0 1 C0 0.67 0 0.34 0 0 Z " fill="#162D0E" transform="translate(4853,2713)"/>
<path d="M0 0 C1.945 2.918 2.453 4.625 3 8 C2.01 8 1.02 8 0 8 C0 5.36 0 2.72 0 0 Z " fill="#6CB24E" transform="translate(2844,3668)"/>
<path d="M0 0 C0 0.99 0 1.98 0 3 C-1.65 3.33 -3.3 3.66 -5 4 C-5 3.01 -5 2.02 -5 1 C-3 0 -3 0 0 0 Z " fill="#7ECB5D" transform="translate(1872,2719)"/>
<path d="M0 0 C0.66 0.33 1.32 0.66 2 1 C0.68 2.32 -0.64 3.64 -2 5 C-2.99 4.34 -3.98 3.68 -5 3 C-2.625 1.438 -2.625 1.438 0 0 Z " fill="#051402" transform="translate(1962,2900)"/>
<path d="M0 0 C0.825 0.165 0.825 0.165 5 1 C4.34 2.32 3.68 3.64 3 5 C1.5 3.625 1.5 3.625 0 2 C0 1.34 0 0.68 0 0 Z " fill="#7DCC5C" transform="translate(1988,2870)"/>
<path d="M0 0 C1.32 0 2.64 0 4 0 C4 0.66 4 1.32 4 2 C2.35 2.66 0.7 3.32 -1 4 C-0.67 2.68 -0.34 1.36 0 0 Z " fill="#061303" transform="translate(2850,3657)"/>
<path d="M0 0 C1.98 0 3.96 0 6 0 C6 0.99 6 1.98 6 3 C4.02 2.34 2.04 1.68 0 1 C0 0.67 0 0.34 0 0 Z " fill="#77BB59" transform="translate(4794,2907)"/>
<path d="M0 0 C0.66 0.33 1.32 0.66 2 1 C0.68 2.32 -0.64 3.64 -2 5 C-2.66 4.34 -3.32 3.68 -4 3 C-2.68 2.01 -1.36 1.02 0 0 Z " fill="#081803" transform="translate(4893,2893)"/>
<path d="M0 0 C0.66 0.33 1.32 0.66 2 1 C0.68 2.32 -0.64 3.64 -2 5 C-2.66 4.34 -3.32 3.68 -4 3 C-2.68 2.01 -1.36 1.02 0 0 Z " fill="#020D00" transform="translate(1975,2891)"/>
<path d="M0 0 C0.99 0.33 1.98 0.66 3 1 C2.67 1.66 2.34 2.32 2 3 C-0.562 3.625 -0.562 3.625 -3 4 C-2.67 3.01 -2.34 2.02 -2 1 C-1.34 0.67 -0.68 0.34 0 0 Z " fill="#78CA55" transform="translate(1923,2712)"/>
<path d="M0 0 C-2.312 1.125 -2.312 1.125 -5 2 C-5.99 1.34 -6.98 0.68 -8 0 C-4.947 -0.981 -3.053 -0.981 0 0 Z " fill="#17300F" transform="translate(4863,2911)"/>
<path d="M0 0 C0.99 0 1.98 0 3 0 C3.33 1.65 3.66 3.3 4 5 C2 3.625 2 3.625 0 2 C0 1.34 0 0.68 0 0 Z " fill="#7AC25C" transform="translate(4753,2877)"/>
<path d="M0 0 C1.461 2.647 2 3.894 2 7 C1.01 7 0.02 7 -1 7 C-0.67 4.69 -0.34 2.38 0 0 Z " fill="#6FB052" transform="translate(2008,2786)"/>
<path d="M0 0 C0.66 0.33 1.32 0.66 2 1 C0.68 2.65 -0.64 4.3 -2 6 C-2 4.35 -2 2.7 -2 1 C-1.34 0.67 -0.68 0.34 0 0 Z " fill="#061403" transform="translate(1825,2754)"/>
<path d="M0 0 C0.33 0.99 0.66 1.98 1 3 C-0.65 3.66 -2.3 4.32 -4 5 C-2.68 3.35 -1.36 1.7 0 0 Z " fill="#061902" transform="translate(4908,2879)"/>
<path d="M0 0 C0.99 0.33 1.98 0.66 3 1 C3.33 2.65 3.66 4.3 4 6 C2.624 4.71 1.292 3.373 0 2 C0 1.34 0 0.68 0 0 Z " fill="#7CBF5F" transform="translate(4741,2860)"/>
<path d="M0 0 C3.875 1.75 3.875 1.75 5 4 C3.062 3.688 3.062 3.688 1 3 C0.67 2.01 0.34 1.02 0 0 Z " fill="#80C761" transform="translate(1972,2733)"/>
<path d="M0 0 C0.99 0 1.98 0 3 0 C2.34 1.32 1.68 2.64 1 4 C0.34 3.67 -0.32 3.34 -1 3 C-0.67 2.01 -0.34 1.02 0 0 Z " fill="#80CE5F" transform="translate(4790,2719)"/>
<path d="M0 0 C0 0.99 0 1.98 0 3 C-1.65 2.67 -3.3 2.34 -5 2 C-2 0 -2 0 0 0 Z " fill="#75B957" transform="translate(1879,2716)"/>
<path d="M0 0 C0.99 0.33 1.98 0.66 3 1 C2.67 1.99 2.34 2.98 2 4 C1.34 3.67 0.68 3.34 0 3 C0 2.01 0 1.02 0 0 Z " fill="#76C754" transform="translate(2854,3682)"/>
<path d="M0 0 C0.66 0 1.32 0 2 0 C2 0.66 2 1.32 2 2 C2.99 2.33 3.98 2.66 5 3 C4.34 3.66 3.68 4.32 3 5 C2.01 3.35 1.02 1.7 0 0 Z " fill="#7BC05D" transform="translate(1831,2876)"/>
<path d="M0 0 C0.66 0.33 1.32 0.66 2 1 C2 1.99 2 2.98 2 4 C1.01 4.33 0.02 4.66 -1 5 C-0.67 3.35 -0.34 1.7 0 0 Z " fill="#74C353" transform="translate(1811,2829)"/>
<path d="M0 0 C0.66 0 1.32 0 2 0 C1.67 1.65 1.34 3.3 1 5 C0.34 4.01 -0.32 3.02 -1 2 C-0.67 1.34 -0.34 0.68 0 0 Z " fill="#80CF5E" transform="translate(4737,2774)"/>
<path d="M0 0 C0.33 1.32 0.66 2.64 1 4 C-0.32 3.67 -1.64 3.34 -3 3 C-2.01 2.01 -1.02 1.02 0 0 Z " fill="#74B857" transform="translate(1844,2735)"/>
<path d="M0 0 C0.99 1.32 1.98 2.64 3 4 C2.01 4.33 1.02 4.66 0 5 C0 3.35 0 1.7 0 0 Z " fill="#0B1C06" transform="translate(2845,3678)"/>
<path d="M0 0 C-0.33 0.99 -0.66 1.98 -1 3 C-2.32 2.67 -3.64 2.34 -5 2 C-2 0 -2 0 0 0 Z " fill="#071604" transform="translate(4888,2898)"/>
<path d="M0 0 C0.99 0 1.98 0 3 0 C2.34 1.32 1.68 2.64 1 4 C0.67 2.68 0.34 1.36 0 0 Z " fill="#7DC55E" transform="translate(4907,2876)"/>
<path d="M0 0 C0.99 0 1.98 0 3 0 C2.34 1.32 1.68 2.64 1 4 C0.67 2.68 0.34 1.36 0 0 Z " fill="#0C1B09" transform="translate(2008,2839)"/>
<path d="M0 0 C0.66 0.33 1.32 0.66 2 1 C2 1.99 2 2.98 2 4 C1.01 3.67 0.02 3.34 -1 3 C-0.67 2.01 -0.34 1.02 0 0 Z " fill="#74BB55" transform="translate(4928,2785)"/>
<path d="M0 0 C1.32 1.32 2.64 2.64 4 4 C3.01 4 2.02 4 1 4 C0.67 2.68 0.34 1.36 0 0 Z " fill="#7EC460" transform="translate(4906,2745)"/>
<path d="M0 0 C0.33 0.99 0.66 1.98 1 3 C0.01 3.33 -0.98 3.66 -2 4 C-1.34 2.68 -0.68 1.36 0 0 Z " fill="#061603" transform="translate(4916,2869)"/>
<path d="M0 0 C0.66 0.33 0.66 0.33 4 2 C3.01 2.33 2.02 2.66 1 3 C0.67 2.01 0.34 1.02 0 0 Z " fill="#81C861" transform="translate(4889,2730)"/>
<path d="M0 0 C0.66 0 1.32 0 2 0 C2 0.99 2 1.98 2 3 C1.01 3 0.02 3 -1 3 C-0.67 2.01 -0.34 1.02 0 0 Z " fill="#83D360" transform="translate(1851,2730)"/>
<path d="M0 0 C0.99 0.33 1.98 0.66 3 1 C2.34 1.66 1.68 2.32 1 3 C0.67 2.01 0.34 1.02 0 0 Z " fill="#77BC59" transform="translate(1844,2889)"/>
<path d="M0 0 C0.99 0.33 1.98 0.66 3 1 C2.34 1.66 1.68 2.32 1 3 C0.67 2.01 0.34 1.02 0 0 Z " fill="#79BF5C" transform="translate(4749,2872)"/>
<path d="M0 0 C0.99 0.33 1.98 0.66 3 1 C2.34 1.66 1.68 2.32 1 3 C0.67 2.01 0.34 1.02 0 0 Z " fill="#7CC35E" transform="translate(4893,2733)"/>
</svg>
